<svg width="24" height="24" viewBox="0 0 24 24" fill="none" xmlns="http://www.w3.org/2000/svg">
<path d="M17.2632 2C19.8792 2 22 4.12076 22 6.73684V17.2632C22 19.8792 19.8792 22 17.2632 22H6.73684C4.12076 22 2 19.8792 2 17.2632V6.73684C2 4.12076 4.12076 2 6.73684 2H17.2632Z" fill="#FF501B"/>
<path d="M16.3643 8.2998C16.5931 8.29991 16.7937 8.38854 16.958 8.55273C17.1237 8.71847 17.2109 8.92262 17.2109 9.15527C17.2109 9.38781 17.1235 9.59112 16.958 9.75684L16.959 9.75781L11.0186 15.7148C10.8541 15.8793 10.6529 15.9677 10.4238 15.9678C10.1947 15.9678 9.99355 15.8792 9.8291 15.7148L7.04492 12.9307C6.8778 12.7635 6.79376 12.557 6.80078 12.3223C6.80777 12.0917 6.89715 11.89 7.06152 11.7256C7.22732 11.5598 7.43131 11.4727 7.66406 11.4727C7.89677 11.4727 8.10083 11.5598 8.2666 11.7256H8.26758L10.4238 13.8975L15.7695 8.55273C15.934 8.38838 16.1352 8.2998 16.3643 8.2998Z" fill="white" stroke="white" stroke-width="0.4" stroke-linejoin="round"/>
</svg>
