<svg width="16" height="16" viewBox="0 0 16 16" fill="none" xmlns="http://www.w3.org/2000/svg">
<path d="M7.61834 9.79796L5.11138 6.74817C5.0769 6.70607 5.04972 6.65905 5.02983 6.6071C5.00994 6.55532 5 6.49975 5 6.44039C5 6.32182 5.03295 6.21874 5.09885 6.13115C5.16474 6.04372 5.25159 6 5.35939 6H10.6406C10.7484 6 10.8353 6.0442 10.9012 6.1326C10.9671 6.22084 11 6.32384 11 6.44159C11 6.47111 10.9628 6.57331 10.8884 6.74817L8.38166 9.79796C8.32412 9.86813 8.26458 9.91934 8.20306 9.95161C8.14154 9.98387 8.07385 10 8 10C7.92615 10 7.85846 9.98387 7.79694 9.95161C7.73541 9.91934 7.67588 9.86813 7.61834 9.79796Z" fill="black"/>
</svg>
