<svg width="24" height="24" viewBox="0 0 24 24" fill="none" xmlns="http://www.w3.org/2000/svg">
<path d="M11.9962 14.1725L16.9253 9.24337C17.093 9.07572 17.2914 8.99468 17.5205 9.00027C17.7496 9.00586 17.948 9.09248 18.1157 9.26014C18.2834 9.4278 18.3672 9.62619 18.3672 9.85533C18.3672 10.0845 18.2834 10.2829 18.1157 10.4505L12.9518 15.5976C12.8177 15.7317 12.6668 15.8323 12.4992 15.8994C12.3315 15.9665 12.1638 16 11.9962 16C11.8285 16 11.6609 15.9665 11.4932 15.8994C11.3255 15.8323 11.1747 15.7317 11.0405 15.5976L5.87665 10.4337C5.70899 10.2661 5.62796 10.0705 5.63355 9.84694C5.63913 9.6234 5.72576 9.4278 5.89342 9.26014C6.06107 9.09248 6.25947 9.00865 6.4886 9.00865C6.71774 9.00865 6.91613 9.09248 7.08379 9.26014L11.9962 14.1725Z" fill="#969696"/>
</svg>
