<svg width="24" height="24" viewBox="0 0 24 24" fill="none" xmlns="http://www.w3.org/2000/svg">
<path d="M11.9962 9.82747L16.9253 14.7566C17.093 14.9243 17.2914 15.0053 17.5205 14.9997C17.7496 14.9941 17.948 14.9075 18.1157 14.7399C18.2834 14.5722 18.3672 14.3738 18.3672 14.1447C18.3672 13.9155 18.2834 13.7171 18.1157 13.5495L12.9518 8.40238C12.8177 8.26825 12.6668 8.16766 12.4992 8.10059C12.3315 8.03353 12.1638 8 11.9962 8C11.8285 8 11.6609 8.03353 11.4932 8.10059C11.3255 8.16766 11.1747 8.26825 11.0405 8.40238L5.87665 13.5663C5.70899 13.7339 5.62796 13.9295 5.63355 14.1531C5.63913 14.3766 5.72576 14.5722 5.89342 14.7399C6.06107 14.9075 6.25947 14.9913 6.4886 14.9913C6.71774 14.9913 6.91613 14.9075 7.08379 14.7399L11.9962 9.82747Z" fill="#969696"/>
</svg>
