<svg width="14" height="14" viewBox="0 0 14 14" fill="none" xmlns="http://www.w3.org/2000/svg">
<path d="M7 12.25C6.83472 12.25 6.69618 12.1941 6.58438 12.0823C6.47257 11.9705 6.41667 11.8319 6.41667 11.6667V9.33333C6.41667 9.16806 6.47257 9.02951 6.58438 8.91771C6.69618 8.8059 6.83472 8.75 7 8.75C7.16528 8.75 7.30382 8.8059 7.41563 8.91771C7.52743 9.02951 7.58333 9.16806 7.58333 9.33333V9.91667H11.6667C11.8319 9.91667 11.9705 9.97257 12.0823 10.0844C12.1941 10.1962 12.25 10.3347 12.25 10.5C12.25 10.6653 12.1941 10.8038 12.0823 10.9156C11.9705 11.0274 11.8319 11.0833 11.6667 11.0833H7.58333V11.6667C7.58333 11.8319 7.52743 11.9705 7.41563 12.0823C7.30382 12.1941 7.16528 12.25 7 12.25ZM2.33333 11.0833C2.16806 11.0833 2.02951 11.0274 1.91771 10.9156C1.8059 10.8038 1.75 10.6653 1.75 10.5C1.75 10.3347 1.8059 10.1962 1.91771 10.0844C2.02951 9.97257 2.16806 9.91667 2.33333 9.91667H4.66667C4.83194 9.91667 4.97049 9.97257 5.08229 10.0844C5.1941 10.1962 5.25 10.3347 5.25 10.5C5.25 10.6653 5.1941 10.8038 5.08229 10.9156C4.97049 11.0274 4.83194 11.0833 4.66667 11.0833H2.33333ZM4.66667 8.75C4.50139 8.75 4.36285 8.6941 4.25104 8.58229C4.13924 8.47049 4.08333 8.33194 4.08333 8.16667V7.58333H2.33333C2.16806 7.58333 2.02951 7.52743 1.91771 7.41563C1.8059 7.30382 1.75 7.16528 1.75 7C1.75 6.83472 1.8059 6.69618 1.91771 6.58438C2.02951 6.47257 2.16806 6.41667 2.33333 6.41667H4.08333V5.83333C4.08333 5.66806 4.13924 5.52951 4.25104 5.41771C4.36285 5.3059 4.50139 5.25 4.66667 5.25C4.83194 5.25 4.97049 5.3059 5.08229 5.41771C5.1941 5.52951 5.25 5.66806 5.25 5.83333V8.16667C5.25 8.33194 5.1941 8.47049 5.08229 8.58229C4.97049 8.6941 4.83194 8.75 4.66667 8.75ZM7 7.58333C6.83472 7.58333 6.69618 7.52743 6.58438 7.41563C6.47257 7.30382 6.41667 7.16528 6.41667 7C6.41667 6.83472 6.47257 6.69618 6.58438 6.58438C6.69618 6.47257 6.83472 6.41667 7 6.41667H11.6667C11.8319 6.41667 11.9705 6.47257 12.0823 6.58438C12.1941 6.69618 12.25 6.83472 12.25 7C12.25 7.16528 12.1941 7.30382 12.0823 7.41563C11.9705 7.52743 11.8319 7.58333 11.6667 7.58333H7ZM9.33333 5.25C9.16806 5.25 9.02951 5.1941 8.91771 5.08229C8.8059 4.97049 8.75 4.83194 8.75 4.66667V2.33333C8.75 2.16806 8.8059 2.02951 8.91771 1.91771C9.02951 1.8059 9.16806 1.75 9.33333 1.75C9.49861 1.75 9.63715 1.8059 9.74896 1.91771C9.86076 2.02951 9.91667 2.16806 9.91667 2.33333V2.91667H11.6667C11.8319 2.91667 11.9705 2.97257 12.0823 3.08438C12.1941 3.19618 12.25 3.33472 12.25 3.5C12.25 3.66528 12.1941 3.80382 12.0823 3.91562C11.9705 4.02743 11.8319 4.08333 11.6667 4.08333H9.91667V4.66667C9.91667 4.83194 9.86076 4.97049 9.74896 5.08229C9.63715 5.1941 9.49861 5.25 9.33333 5.25ZM2.33333 4.08333C2.16806 4.08333 2.02951 4.02743 1.91771 3.91562C1.8059 3.80382 1.75 3.66528 1.75 3.5C1.75 3.33472 1.8059 3.19618 1.91771 3.08438C2.02951 2.97257 2.16806 2.91667 2.33333 2.91667H7C7.16528 2.91667 7.30382 2.97257 7.41563 3.08438C7.52743 3.19618 7.58333 3.33472 7.58333 3.5C7.58333 3.66528 7.52743 3.80382 7.41563 3.91562C7.30382 4.02743 7.16528 4.08333 7 4.08333H2.33333Z" fill="#666666"/>
</svg>
