<svg width="16" height="16" viewBox="0 0 16 16" fill="none" xmlns="http://www.w3.org/2000/svg">
<path d="M8 13.25C7.83472 13.25 7.69618 13.1941 7.58438 13.0823C7.47257 12.9705 7.41667 12.8319 7.41667 12.6667V10.3333C7.41667 10.1681 7.47257 10.0295 7.58438 9.91771C7.69618 9.8059 7.83472 9.75 8 9.75C8.16528 9.75 8.30382 9.8059 8.41563 9.91771C8.52743 10.0295 8.58333 10.1681 8.58333 10.3333V10.9167H12.6667C12.8319 10.9167 12.9705 10.9726 13.0823 11.0844C13.1941 11.1962 13.25 11.3347 13.25 11.5C13.25 11.6653 13.1941 11.8038 13.0823 11.9156C12.9705 12.0274 12.8319 12.0833 12.6667 12.0833H8.58333V12.6667C8.58333 12.8319 8.52743 12.9705 8.41563 13.0823C8.30382 13.1941 8.16528 13.25 8 13.25ZM3.33333 12.0833C3.16806 12.0833 3.02951 12.0274 2.91771 11.9156C2.8059 11.8038 2.75 11.6653 2.75 11.5C2.75 11.3347 2.8059 11.1962 2.91771 11.0844C3.02951 10.9726 3.16806 10.9167 3.33333 10.9167H5.66667C5.83194 10.9167 5.97049 10.9726 6.08229 11.0844C6.1941 11.1962 6.25 11.3347 6.25 11.5C6.25 11.6653 6.1941 11.8038 6.08229 11.9156C5.97049 12.0274 5.83194 12.0833 5.66667 12.0833H3.33333ZM5.66667 9.75C5.50139 9.75 5.36285 9.6941 5.25104 9.58229C5.13924 9.47049 5.08333 9.33194 5.08333 9.16667V8.58333H3.33333C3.16806 8.58333 3.02951 8.52743 2.91771 8.41563C2.8059 8.30382 2.75 8.16528 2.75 8C2.75 7.83472 2.8059 7.69618 2.91771 7.58438C3.02951 7.47257 3.16806 7.41667 3.33333 7.41667H5.08333V6.83333C5.08333 6.66806 5.13924 6.52951 5.25104 6.41771C5.36285 6.3059 5.50139 6.25 5.66667 6.25C5.83194 6.25 5.97049 6.3059 6.08229 6.41771C6.1941 6.52951 6.25 6.66806 6.25 6.83333V9.16667C6.25 9.33194 6.1941 9.47049 6.08229 9.58229C5.97049 9.6941 5.83194 9.75 5.66667 9.75ZM8 8.58333C7.83472 8.58333 7.69618 8.52743 7.58438 8.41563C7.47257 8.30382 7.41667 8.16528 7.41667 8C7.41667 7.83472 7.47257 7.69618 7.58438 7.58438C7.69618 7.47257 7.83472 7.41667 8 7.41667H12.6667C12.8319 7.41667 12.9705 7.47257 13.0823 7.58438C13.1941 7.69618 13.25 7.83472 13.25 8C13.25 8.16528 13.1941 8.30382 13.0823 8.41563C12.9705 8.52743 12.8319 8.58333 12.6667 8.58333H8ZM10.3333 6.25C10.1681 6.25 10.0295 6.1941 9.91771 6.08229C9.8059 5.97049 9.75 5.83194 9.75 5.66667V3.33333C9.75 3.16806 9.8059 3.02951 9.91771 2.91771C10.0295 2.8059 10.1681 2.75 10.3333 2.75C10.4986 2.75 10.6372 2.8059 10.749 2.91771C10.8608 3.02951 10.9167 3.16806 10.9167 3.33333V3.91667H12.6667C12.8319 3.91667 12.9705 3.97257 13.0823 4.08438C13.1941 4.19618 13.25 4.33472 13.25 4.5C13.25 4.66528 13.1941 4.80382 13.0823 4.91562C12.9705 5.02743 12.8319 5.08333 12.6667 5.08333H10.9167V5.66667C10.9167 5.83194 10.8608 5.97049 10.749 6.08229C10.6372 6.1941 10.4986 6.25 10.3333 6.25ZM3.33333 5.08333C3.16806 5.08333 3.02951 5.02743 2.91771 4.91562C2.8059 4.80382 2.75 4.66528 2.75 4.5C2.75 4.33472 2.8059 4.19618 2.91771 4.08438C3.02951 3.97257 3.16806 3.91667 3.33333 3.91667H8C8.16528 3.91667 8.30382 3.97257 8.41563 4.08438C8.52743 4.19618 8.58333 4.33472 8.58333 4.5C8.58333 4.66528 8.52743 4.80382 8.41563 4.91562C8.30382 5.02743 8.16528 5.08333 8 5.08333H3.33333Z" fill="#666666"/>
</svg>
