<svg width="20" height="20" viewBox="0 0 20 20" fill="none" xmlns="http://www.w3.org/2000/svg">
<path d="M10.0002 14C10.1793 14 10.3293 13.9394 10.4501 13.8183C10.5711 13.6973 10.6316 13.5474 10.6316 13.3684V9.78947C10.6316 9.61053 10.571 9.46049 10.4499 9.33937C10.3288 9.21839 10.1787 9.1579 9.99979 9.1579C9.8207 9.1579 9.67074 9.21839 9.54989 9.33937C9.42891 9.46049 9.36842 9.61053 9.36842 9.78947V13.3684C9.36842 13.5474 9.42898 13.6973 9.55011 13.8183C9.67123 13.9394 9.82126 14 10.0002 14ZM10 7.71663C10.1927 7.71663 10.3542 7.65144 10.4846 7.52105C10.615 7.39067 10.6802 7.22912 10.6802 7.03642C10.6802 6.84372 10.615 6.68218 10.4846 6.55179C10.3542 6.42154 10.1927 6.35642 10 6.35642C9.8073 6.35642 9.64575 6.42154 9.51537 6.55179C9.38498 6.68218 9.31979 6.84372 9.31979 7.03642C9.31979 7.22912 9.38498 7.39067 9.51537 7.52105C9.64575 7.65144 9.8073 7.71663 10 7.71663ZM10.0015 18C8.89495 18 7.85488 17.79 6.88126 17.3701C5.90765 16.9502 5.06077 16.3803 4.34063 15.6604C3.62049 14.9406 3.05032 14.094 2.63011 13.1208C2.21003 12.1476 2 11.1079 2 10.0015C2 8.89495 2.20996 7.85488 2.62989 6.88126C3.04982 5.90765 3.61972 5.06077 4.33958 4.34063C5.05944 3.62049 5.90597 3.05032 6.87916 2.63011C7.85235 2.21003 8.89214 2 9.99853 2C11.1051 2 12.1451 2.20996 13.1187 2.62989C14.0924 3.04982 14.9392 3.61972 15.6594 4.33958C16.3795 5.05944 16.9497 5.90597 17.3699 6.87916C17.79 7.85235 18 8.89214 18 9.99853C18 11.1051 17.79 12.1451 17.3701 13.1187C16.9502 14.0924 16.3803 14.9392 15.6604 15.6594C14.9406 16.3795 14.094 16.9497 13.1208 17.3699C12.1476 17.79 11.1079 18 10.0015 18ZM10 16.7368C11.8807 16.7368 13.4737 16.0842 14.7789 14.7789C16.0842 13.4737 16.7368 11.8807 16.7368 10C16.7368 8.1193 16.0842 6.52632 14.7789 5.22105C13.4737 3.91579 11.8807 3.26316 10 3.26316C8.1193 3.26316 6.52632 3.91579 5.22105 5.22105C3.91579 6.52632 3.26316 8.1193 3.26316 10C3.26316 11.8807 3.91579 13.4737 5.22105 14.7789C6.52632 16.0842 8.1193 16.7368 10 16.7368Z" fill="#B9B9B9"/>
</svg>
