<svg width="16" height="16" viewBox="0 0 16 16" fill="none" xmlns="http://www.w3.org/2000/svg">
<path d="M8 13C6.60417 13 5.42188 12.5156 4.45312 11.5469C3.48438 10.5781 3 9.39583 3 8C3 6.60417 3.48438 5.42188 4.45312 4.45312C5.42188 3.48438 6.60417 3 8 3C8.71875 3 9.40625 3.14844 10.0625 3.44531C10.7188 3.74219 11.2812 4.16667 11.75 4.71875V3.625C11.75 3.44792 11.8099 3.29948 11.9297 3.17969C12.0495 3.0599 12.1979 3 12.375 3C12.5521 3 12.7005 3.0599 12.8203 3.17969C12.9401 3.29948 13 3.44792 13 3.625V6.75C13 6.92708 12.9401 7.07552 12.8203 7.19531C12.7005 7.3151 12.5521 7.375 12.375 7.375H9.25C9.07292 7.375 8.92448 7.3151 8.80469 7.19531C8.6849 7.07552 8.625 6.92708 8.625 6.75C8.625 6.57292 8.6849 6.42448 8.80469 6.30469C8.92448 6.1849 9.07292 6.125 9.25 6.125H11.25C10.9167 5.54167 10.4609 5.08333 9.88281 4.75C9.30469 4.41667 8.67708 4.25 8 4.25C6.95833 4.25 6.07292 4.61458 5.34375 5.34375C4.61458 6.07292 4.25 6.95833 4.25 8C4.25 9.04167 4.61458 9.92708 5.34375 10.6562C6.07292 11.3854 6.95833 11.75 8 11.75C8.70833 11.75 9.35677 11.5703 9.94531 11.2109C10.5339 10.8516 10.9896 10.3698 11.3125 9.76562C11.3958 9.61979 11.513 9.51823 11.6641 9.46094C11.8151 9.40365 11.9688 9.40104 12.125 9.45312C12.2917 9.50521 12.4115 9.61458 12.4844 9.78125C12.5573 9.94792 12.5521 10.1042 12.4688 10.25C12.0417 11.0833 11.4323 11.75 10.6406 12.25C9.84896 12.75 8.96875 13 8 13Z" fill="#666666"/>
</svg>
