<svg width="14" height="14" viewBox="0 0 14 14" fill="none" xmlns="http://www.w3.org/2000/svg">
<path d="M7 11.375C5.77865 11.375 4.74414 10.9512 3.89648 10.1035C3.04883 9.25586 2.625 8.22135 2.625 7C2.625 5.77865 3.04883 4.74414 3.89648 3.89648C4.74414 3.04883 5.77865 2.625 7 2.625C7.62891 2.625 8.23047 2.75488 8.80469 3.01465C9.37891 3.27441 9.87109 3.64583 10.2812 4.12891V3.17188C10.2812 3.01693 10.3337 2.88704 10.4385 2.78223C10.5433 2.67741 10.6732 2.625 10.8281 2.625C10.9831 2.625 11.113 2.67741 11.2178 2.78223C11.3226 2.88704 11.375 3.01693 11.375 3.17188V5.90625C11.375 6.0612 11.3226 6.19108 11.2178 6.2959C11.113 6.40072 10.9831 6.45312 10.8281 6.45312H8.09375C7.9388 6.45312 7.80892 6.40072 7.7041 6.2959C7.59928 6.19108 7.54688 6.0612 7.54688 5.90625C7.54688 5.7513 7.59928 5.62142 7.7041 5.5166C7.80892 5.41178 7.9388 5.35938 8.09375 5.35938H9.84375C9.55208 4.84896 9.15332 4.44792 8.64746 4.15625C8.1416 3.86458 7.59245 3.71875 7 3.71875C6.08854 3.71875 5.3138 4.03776 4.67578 4.67578C4.03776 5.3138 3.71875 6.08854 3.71875 7C3.71875 7.91146 4.03776 8.6862 4.67578 9.32422C5.3138 9.96224 6.08854 10.2812 7 10.2812C7.61979 10.2812 8.18717 10.124 8.70215 9.80957C9.21712 9.49512 9.61589 9.07357 9.89844 8.54492C9.97135 8.41732 10.0739 8.32845 10.2061 8.27832C10.3382 8.22819 10.4727 8.22591 10.6094 8.27148C10.7552 8.31706 10.86 8.41276 10.9238 8.55859C10.9876 8.70443 10.9831 8.84115 10.9102 8.96875C10.5365 9.69792 10.0033 10.2812 9.31055 10.7188C8.61784 11.1562 7.84766 11.375 7 11.375Z" fill="#666666"/>
</svg>
