<svg width="14" height="14" viewBox="0 0 14 14" fill="none" xmlns="http://www.w3.org/2000/svg">
<path d="M6.99713 8.69466L10.518 5.17384C10.6377 5.05408 10.7794 4.9962 10.9431 5.00019C11.1068 5.00418 11.2485 5.06606 11.3682 5.18581C11.488 5.30557 11.5479 5.44728 11.5479 5.61095C11.5479 5.77461 11.488 5.91633 11.3682 6.03608L7.67974 9.71259C7.58393 9.80839 7.47615 9.88024 7.3564 9.92815C7.23664 9.97605 7.11688 10 6.99713 10C6.87737 10 6.75762 9.97605 6.63786 9.92815C6.5181 9.88024 6.41032 9.80839 6.31452 9.71259L2.62604 6.02411C2.50628 5.90435 2.4484 5.76463 2.45239 5.60496C2.45638 5.44529 2.51826 5.30557 2.63801 5.18581C2.75777 5.06606 2.89948 5.00618 3.06315 5.00618C3.22681 5.00618 3.36853 5.06606 3.48828 5.18581L6.99713 8.69466Z" fill="#666666"/>
</svg>
